<svg width="64" height="12" viewBox="0 0 64 12" fill="none" xmlns="http://www.w3.org/2000/svg">
<rect width="64" height="12" fill="#1E1E1E"/>
<path d="M2.63637 11.7955H5.57303e-06L4.01705 0.159092H7.18751L11.1989 11.7955H8.56251L5.64773 2.81818H5.55682L2.63637 11.7955ZM2.4716 7.22159H8.69887V9.14205H2.4716V7.22159ZM12.5994 11.7955V0.159092H15.0597V9.76705H20.0483V11.7955H12.5994ZM19.7813 2.1875V0.159092H29.3381V2.1875H25.7756V11.7955H23.3438V2.1875H19.7813ZM41.0739 5.97727C41.0739 7.24621 40.8333 8.32576 40.3523 9.21591C39.875 10.1061 39.2235 10.786 38.3977 11.2557C37.5758 11.7216 36.6515 11.9545 35.625 11.9545C34.5909 11.9545 33.6629 11.7197 32.8409 11.25C32.0189 10.7803 31.3693 10.1004 30.8921 9.21023C30.4148 8.32008 30.1761 7.24243 30.1761 5.97727C30.1761 4.70833 30.4148 3.62879 30.8921 2.73864C31.3693 1.84849 32.0189 1.17046 32.8409 0.704547C33.6629 0.23485 34.5909 9.53674e-07 35.625 9.53674e-07C36.6515 9.53674e-07 37.5758 0.23485 38.3977 0.704547C39.2235 1.17046 39.875 1.84849 40.3523 2.73864C40.8333 3.62879 41.0739 4.70833 41.0739 5.97727ZM38.5796 5.97727C38.5796 5.1553 38.4564 4.46212 38.2102 3.89773C37.9678 3.33333 37.625 2.9053 37.1818 2.61364C36.7386 2.32197 36.2197 2.17614 35.625 2.17614C35.0303 2.17614 34.5114 2.32197 34.0682 2.61364C33.625 2.9053 33.2803 3.33333 33.0341 3.89773C32.7917 4.46212 32.6705 5.1553 32.6705 5.97727C32.6705 6.79924 32.7917 7.49243 33.0341 8.05682C33.2803 8.62121 33.625 9.04924 34.0682 9.34091C34.5114 9.63258 35.0303 9.77841 35.625 9.77841C36.2197 9.77841 36.7386 9.63258 37.1818 9.34091C37.625 9.04924 37.9678 8.62121 38.2102 8.05682C38.4564 7.49243 38.5796 6.79924 38.5796 5.97727Z" fill="white"/>
<path d="M52.6193 1.79546H50.6193L49.6193 6.79546L52.6193 5.79546L51.6193 11.7955L55.6193 3.79546H52.6193V1.79546Z" fill="#FFFF00"/>
<rect x="45.5073" y="4.0196" width="14.2241" height="7.77586" fill="#D9D9D9"/>
<circle cx="45.5073" cy="7.90753" r="3.88793" fill="#D9D9D9"/>
<circle cx="59.7314" cy="7.90753" r="3.88793" fill="#D9D9D9"/>
<circle cx="49.3952" cy="4.0196" r="3.88793" fill="#D9D9D9"/>
<circle cx="55.8435" cy="4.0196" r="3.88793" fill="#D9D9D9"/>
</svg>
